<svg xmlns="http://www.w3.org/2000/svg" xmlns:xlink="http://www.w3.org/1999/xlink" style="width: 0; height: 0; visibility: hidden; position: absolute;" aria-hidden="true" ><symbol  viewBox='-32 0 479 480' id='anchor'>
    <path fill="var(--icon-color)" d="M414.7 290.8l-40-48a8.3 8.3 0 00-12.4 0l-40 48a8 8 0 006.2 13.2h12.7c-11.8 48.2-54.7 85.4-108.7 94V192h72a8 8 0 008-8v-32a8 8 0 00-8-8h-72v-20.7a64 64 0 10-48 0V144h-72a8 8 0 00-8 8v32a8 8 0 008 8h72v206c-54-8.6-96.9-45.8-108.7-94h12.7a8 8 0 006.2-13.2l-40-48a8.3 8.3 0 00-12.4 0l-40 48A8 8 0 008.5 304h17.8C38 378.4 103 436.8 184.5 446.5v9.5a8 8 0 002.3 5.6l16 16a8.1 8.1 0 0011.4 0l16-16a8.3 8.3 0 002.3-5.6v-9.5c81.6-9.7 146.5-68.1 158.2-142.5h17.8a8 8 0 006.2-13.2zM208.5 88a24 24 0 110-48 24 24 0 010 48zm0 0"></path>
  </symbol><symbol  viewBox='0 0 357 357' id='close'>
    <path fill="var(--icon-color)" d="M357 35.7L321.3 0 178.5 142.8 35.7 0 0 35.7l142.8 142.8L0 321.3 35.7 357l142.8-142.8L321.3 357l35.7-35.7-142.8-142.8z"></path>
  </symbol><symbol  viewBox='0 0 24 24' id='facebook'>
    <path fill="var(--icon-color)" d="M16 4h2.2V.2L15 0c-3.2 0-5.3 2-5.3 5.6V9H6.2v4.3h3.5V24h4.2V13.3h3.4l.5-4.3H14V6c0-1.2.4-2 2.1-2z"></path>
  </symbol><symbol  viewBox='-21 -21 682.7 682.7' id='facebook2'>
    <path fill="var(--icon-color)" d="M604.7 0H35.3A35.3 35.3 0 000 35.3v569.4A35.3 35.3 0 0035.3 640H342V392.5h-83.1v-96.9h83v-71.3c0-82.6 50.5-127.6 124.3-127.6 35.3 0 65.7 2.6 74.5 3.8v86.4h-50.8c-40.2 0-48 19-48 47v61.7h96l-12.5 96.9H442V640h162.8a35.3 35.3 0 0035.3-35.3V35.3A35.3 35.3 0 00604.7 0zm0 0"></path>
  </symbol><symbol  viewBox='0 0 504.4 504.4' id='instagram'>
    <path fill="var(--icon-color)" d="M296.8 219.8a55.1 55.1 0 00-89.6 0 55.3 55.3 0 10100 32.4c0-12-4-23.2-10.4-32.4z"></path><path fill="var(--icon-color)" d="M331.6 220.2c4 8 6.4 20.8 6.4 32a86.1 86.1 0 01-172 0c0-11.6 2.4-24 6.4-32H124v128.4a32.5 32.5 0 0031.6 31.6h192.8a32.5 32.5 0 0031.6-31.6V220.2h-48.4zm34-88.8h-46.4v53.2H372V131z"></path><path fill="var(--icon-color)" d="M377.6.2H126.4A126.7 126.7 0 000 126.6v251.6c0 69.2 56.8 126 126.4 126H378c69.6 0 126.4-56.8 126.4-126.4V126.6A127.3 127.3 0 00377.6.2zM408 219.8v128.8c0 33.6-26 59.6-59.6 59.6H155.6c-33.6 0-59.6-26-59.6-59.6V155.8c0-33.6 26-59.6 59.6-59.6h192.8c33.6 0 59.6 26 59.6 59.6v64z"></path>
  </symbol><symbol  viewBox='0 0 24 24' id='instagram2'>
    <path fill="var(--icon-color)" d="M12 5.8a6.2 6.2 0 100 12.4 6.2 6.2 0 000-12.4zM12 16a4 4 0 110-8 4 4 0 010 8z"></path><path fill="var(--icon-color)" d="M17 0H7C5.2.3 3.5.7 2 2-.3 4.3 0 7.4 0 12c0 4.7-.2 7.7 2 10 2.3 2.3 5.5 2 10 2 4.6 0 6.2 0 7.9-.6 2.2-.9 3.9-2.9 4-6.5V7.1c-.2-4.3-2.4-6.8-7-7zm3.4 20.4C19 22 16.8 21.8 12 21.8c-5 0-7 .1-8.5-1.4-1.7-1.6-1.4-4.3-1.4-8.4 0-5.5-.5-9.5 5-9.8H12c5.3 0 9.5-.6 9.8 5V12c0 5 .1 7-1.4 8.4z"></path><circle fill="var(--icon-color)" cx="18.4" cy="5.6" r="1.4"></circle>
  </symbol><symbol  viewBox='0 0 24 24' id='linkedin'>
    <path fill="var(--icon-color)" d="M24 24v-8.8c0-4.3-1-7.6-6-7.6-2.4 0-4 1.3-4.7 2.6V8H8.5v16h5v-8c0-2 .4-4 3-4 2.5 0 2.5 2.3 2.5 4.2V24zM.4 8h5v16h-5zm2.5-8a2.9 2.9 0 000 5.8 3 3 0 002.9-3c0-1.5-1.3-2.8-3-2.8z"></path>
  </symbol><symbol  viewBox='0 0 512 512' id='location'>
    <path fill="var(--icon-color)" d="M256 0a180.2 180.2 0 00-153.1 274.7l142.9 230.2a15 15 0 0012.7 7.1h.1a15 15 0 0012.8-7.3l139.2-232.5A180.2 180.2 0 00256 0zm128.9 256.8L258.3 468.2l-130-209.4A149.8 149.8 0 01256 29.8a150.4 150.4 0 01128.9 227z"></path><path fill="var(--icon-color)" d="M256 90a90.1 90.1 0 10.2 180.2A90.1 90.1 0 00256 90zm0 150.2a60.2 60.2 0 110-120.5 60.2 60.2 0 010 120.5z"></path>
  </symbol><symbol  viewBox='0 0 449.8 449.8' id='message'>
    <path fill="var(--icon-color)" d="M449.4 5.5c0-.3-.2-.6-.3-.8a8 8 0 00-1.6-2.4 7.9 7.9 0 00-2.4-1.6l-.9-.3a7.8 7.8 0 00-5.6.3l-.5.1L4.3 231.1a8 8 0 002.1 15l164.7 32.6 32.7 164.6a8 8 0 0014.9 2.2L448.9 11.6l.2-.4.3-1a8 8 0 000-4.7zM31.6 234.7L398.5 40 175.3 263.2 31.6 234.7zM215 418.2l-28.6-143.7L409.7 51.3 215.1 418.2z"></path>
  </symbol><symbol  viewBox='0 0 512 512' id='phone'>
    <path fill="var(--icon-color)" d="M298.7 25.6h-85.4a8.5 8.5 0 000 17h85.4a8.5 8.5 0 000-17zm59.7 0h-8.5a8.5 8.5 0 000 17h8.5a8.5 8.5 0 000-17zm-91.8 409.6h-21.2c-13 0-23.5 10.6-23.5 23.5v4.2c0 13 10.5 23.5 23.5 23.5h21.2c13 0 23.5-10.6 23.5-23.5v-4.2c0-13-10.5-23.5-23.5-23.5zm6.5 27.7c0 3.5-3 6.4-6.5 6.4h-21.2a6.5 6.5 0 01-6.5-6.4v-4.2c0-3.5 3-6.4 6.5-6.4h21.2c3.6 0 6.5 2.9 6.5 6.4v4.2z"></path><path fill="var(--icon-color)" d="M370.2 0H141.8c-17 0-30.9 13.8-30.9 30.8v450.4c0 17 13.9 30.8 30.9 30.8h228.4c17 0 30.9-13.8 30.9-30.8V30.8c0-17-13.9-30.8-30.9-30.8zM384 481.2c0 7.5-6.2 13.7-13.8 13.7H141.8c-7.6 0-13.8-6.2-13.8-13.7V30.8c0-7.5 6.2-13.7 13.8-13.7h228.4c7.6 0 13.8 6.2 13.8 13.7v450.4z"></path><path fill="var(--icon-color)" d="M392.5 51.2h-273a8.5 8.5 0 00-8.6 8.5v358.4c0 4.7 3.9 8.6 8.6 8.6h273c4.7 0 8.6-3.9 8.6-8.6V59.7c0-4.7-3.9-8.5-8.6-8.5zM384 409.6H128V68.3h256v341.3z"></path>
  </symbol><symbol  viewBox='0 0 779 779' id='play-triangle-outline'>
    <path fill="var(--icon-color)" d="M673.2 348.9L150.1 7.9C119-8.8 83.5-1.3 83.5 53.6v671.2c0 54.6 38.2 64.3 66.6 45.6l523.1-341c30.1-21.2 29.3-60.8 0-80.4zM138.6 702.4V75.9L635 389 138.6 702.4z"></path>
  </symbol><symbol  viewBox='0 0 512 512' id='ring'>
    <path fill="var(--icon-color)" d="M328.5 229.4A44.8 44.8 0 00286 196c-11 0-21.5 3.6-30 10-8.5-6.4-19-10-30-10-19.5 0-37 13.7-42.4 33.3-4.3 15.6-6.7 56.5 64.7 99.5l7.7 4.7 7.7-4.7c71.5-43 69.1-83.8 64.8-99.4zM271 122.5V.8c-5-.3-10-.8-15-.8s-10 .5-15 .8v121.7c5-.5 9.9-1.5 15-1.5s10 1 15 1.5zM389.5 241c.5 5 1.5 9.9 1.5 15s-1 10-1.5 15h121.7c.3-5 .8-10 .8-15s-.5-10-.8-15zM301 4.2v125a134.8 134.8 0 0181.7 81.8h125A257.6 257.6 0 00301 4.2zm-90 125.1V4.3A257.6 257.6 0 004.2 211h125a134.8 134.8 0 0181.8-81.7zM122.5 271c-.5-5-1.5-9.9-1.5-15s1-10 1.5-15H.8c-.3 5-.8 10-.8 15s.5 10 .8 15zm260.2 30a134.8 134.8 0 01-81.7 81.7v125A257.6 257.6 0 00507.8 301zM271 389.5c-5 .5-9.9 1.5-15 1.5s-10-1-15-1.5v121.7c5 .3 10 .8 15 .8s10-.5 15-.8zm-60 118.3v-125a134.8 134.8 0 01-81.7-81.8H4.3A257.6 257.6 0 00211 507.8z"></path>
  </symbol><symbol  viewBox='0 0 297 297' id='sandclock'>
    <path fill="var(--icon-color)" d="M251 277h-17.7v-31.5c0-31.7-17.3-60.8-48.9-82-4-2.6-6.4-8.4-6.4-15s2.5-12.4 6.4-15c31.6-21.2 49-50.3 49-82V20H251a10 10 0 000-20H46a10 10 0 000 20h17.7v31.5c0 31.7 17.3 60.8 48.8 82 4 2.6 6.5 8.4 6.5 15s-2.5 12.4-6.5 15c-31.5 21.2-48.8 50.3-48.8 82V277H46a10 10 0 000 20h205a10 10 0 000-20zM83.7 245.5c0-33.5 25-55.3 40-65.4 9.6-6.4 15.3-18.2 15.3-31.6s-5.7-25.2-15.3-31.6c-15-10-40-32-40-65.4V20h129.6v31.5c0 33.5-25 55.3-40 65.4-9.6 6.4-15.3 18.2-15.3 31.6s5.7 25.2 15.3 31.6c15 10 40 32 40 65.4V277H210c-8.2-30.9-50.1-64.4-55.3-68.5a10 10 0 00-12.4 0c-5.2 4-47.1 37.6-55.3 68.5h-3.3v-31.5zM189 277h-81c6.5-15.4 25.3-34.9 40.5-47.7 15.2 12.8 34 32.3 40.5 47.7z"></path><path fill="var(--icon-color)" d="M148.5 191a10 10 0 0010-10 10 10 0 00-10-10 10 10 0 00-10 10 10 10 0 0010 10zm0-53a10 10 0 0010-10v-17.6a10 10 0 00-20 0V128a10 10 0 0010 10z"></path>
  </symbol><symbol  viewBox='0 0 396.8 396.8' id='search'>
    <path fill="var(--icon-color)" d="M352.1 44.7a151.9 151.9 0 00-220.3 209l-11.6 11.6a24 24 0 00-34 0L7 344.5a24 24 0 000 34l11.3 11.3a24 24 0 0034 0l79.2-79.2a24 24 0 000-34L143 265A151.9 151.9 0 00352 44.7zm-232 254.5L41 378.4a8 8 0 01-11.3 0l-11.3-11.3a8 8 0 010-11.3l79.2-79.2c3.1-3 8.1-3 11.3 0l11.3 11.3a8 8 0 010 11.3zm220.7-50.9A136 136 0 11148.5 56a136 136 0 01192.3 192.3z"></path><path fill="var(--icon-color)" d="M329.5 67.3l-11.3 11.3a104.1 104.1 0 010 147.1l11.3 11.3a120.1 120.1 0 000-169.7z"></path>
  </symbol><symbol  viewBox='-42 0 478 478.4' id='shopping'>
    <path fill="var(--icon-color)" d="M368.6 122.9a10 10 0 00-10-9.1h-76V85a85 85 0 00-170 0v28.8h-76a10 10 0 00-10 9.1L.4 424.1a50 50 0 0049.9 54.3H345a50 50 0 0049.9-54.3zM132.6 85a65 65 0 01130 0v28.8h-130zM367 448.7a29.6 29.6 0 01-22.1 9.7H50.2a30 30 0 01-30-32.6l25.5-292h66.9v62.4a34 34 0 1020 0v-62.5h130v62.5a34 34 0 1020 0v-62.5h66.8l25.4 292c.8 8.4-2 16.8-7.7 23zM121 214.8h3a14 14 0 11-3 0zm150 0h3a14 14 0 11-3 0zm0 0"></path>
  </symbol><symbol  viewBox='0 0 24 24' id='twitter'>
    <path fill="var(--icon-color)" d="M24 4.3a9 9 0 01-2.8.8c1-.6 1.8-1.6 2.2-2.7-1 .6-2 1-3.1 1.2-1-1-2.3-1.6-3.7-1.6a5 5 0 00-4.9 4.9l.1 1.1C7.7 7.8 4.1 5.9 1.7 2.9c-.5.7-.7 1.6-.7 2.5a5 5 0 002.2 4.1A7 7 0 011 8.9V9c0 2.4 1.7 4.4 3.9 4.8l-1.3.2-.9-.1c.6 2 2.4 3.4 4.6 3.4a10 10 0 01-6.1 2.1L0 19.3A14 14 0 0021.5 7.5v-.6c1-.7 1.8-1.6 2.5-2.6"></path>
  </symbol><symbol  viewBox='0 0 512 512' id='waves'>
    <path fill="var(--icon-color)" d="M7 271.2c30.3 26 64.6 55.4 131 55.4s100.7-29.4 131-55.4c28.7-24.6 53.4-45.8 105-45.8s76.3 21.2 105 45.8a20 20 0 1026-30.4c-30.3-26-64.6-55.4-131-55.4s-100.7 29.4-131 55.4c-28.7 24.6-53.4 45.8-105 45.8s-76.3-21.2-105-45.8a20 20 0 10-26 30.4z"></path><path fill="var(--icon-color)" d="M7 161.8c30.3 26 64.6 55.4 131 55.4s100.7-29.4 131-55.4c28.7-24.6 53.4-45.8 105-45.8s76.3 21.2 105 45.8a20 20 0 1026-30.4c-30.3-26-64.6-55.4-131-55.4s-100.7 29.4-131 55.4c-28.7 24.6-53.4 45.8-105 45.8S61.7 156 33 131.4a20 20 0 10-26 30.4zm498 188.4c-30.3-26-64.6-55.4-131-55.4s-100.7 29.4-131 55.4c-28.7 24.6-53.4 45.8-105 45.8s-76.3-21.2-105-45.8a20 20 0 00-26 30.4c30.3 26 64.6 55.4 131 55.4s100.7-29.4 131-55.4c28.7-24.6 53.4-45.8 105-45.8s76.3 21.2 105 45.8a20 20 0 1026-30.4z"></path>
  </symbol></svg>